<?xml version="1.0" encoding="UTF-8" standalone="no"?>
<svg
   xmlns:dc="http://purl.org/dc/elements/1.1/"
   xmlns:cc="http://creativecommons.org/ns#"
   xmlns:rdf="http://www.w3.org/1999/02/22-rdf-syntax-ns#"
   xmlns:svg="http://www.w3.org/2000/svg"
   xmlns="http://www.w3.org/2000/svg"
   xmlns:sodipodi="http://sodipodi.sourceforge.net/DTD/sodipodi-0.dtd"
   xmlns:inkscape="http://www.inkscape.org/namespaces/inkscape"
   enable-background="new 0 0 24 24"
   height="24px"
   id="Layer_1"
   version="1.1"
   viewBox="0 0 24 24"
   width="24px"
   xml:space="preserve"
   inkscape:version="0.48.4 r9939"
   sodipodi:docname="Add.svg"><metadata
     id="metadata9"><rdf:RDF><cc:Work
         rdf:about=""><dc:format>image/svg+xml</dc:format><dc:type
           rdf:resource="http://purl.org/dc/dcmitype/StillImage" /></cc:Work></rdf:RDF></metadata><defs
     id="defs7" /><sodipodi:namedview
     pagecolor="#ffffff"
     bordercolor="#666666"
     borderopacity="1"
     objecttolerance="10"
     gridtolerance="10"
     guidetolerance="10"
     inkscape:pageopacity="0"
     inkscape:pageshadow="2"
     inkscape:window-width="840"
     inkscape:window-height="480"
     id="namedview5"
     showgrid="false"
     inkscape:zoom="12.022786"
     inkscape:cx="12"
     inkscape:cy="12"
     inkscape:window-x="371"
     inkscape:window-y="106"
     inkscape:window-maximized="0"
     inkscape:current-layer="Layer_1" /><path
     clip-rule="evenodd"
     d="m 23.478261,14.608696 h -8.869565 v 8.869565 C 14.608696,23.766261 14.374957,24 14.086957,24 H 9.9130435 c -0.288,0 -0.5217392,-0.233739 -0.5217392,-0.521739 V 14.608696 H 0.52173913 C 0.23373913,14.608696 0,14.374957 0,14.086957 V 9.9130435 c 0,-0.288 0.23373913,-0.5217392 0.52173913,-0.5217392 H 9.3913043 V 0.52173913 C 9.3913043,0.23373913 9.6250435,0 9.9130435,0 h 4.1739135 c 0.288,0 0.521739,0.23373913 0.521739,0.52173913 V 9.3913043 h 8.869565 c 0.288,0 0.521739,0.2337392 0.521739,0.5217392 v 4.1739135 c 0,0.288 -0.233739,0.521739 -0.521739,0.521739 z"
     id="path3"
     style="fill:#008000;fill-rule:evenodd"
     inkscape:connector-curvature="0" /></svg>