<?xml version="1.0" encoding="UTF-8" standalone="no"?>
<svg
   xmlns:dc="http://purl.org/dc/elements/1.1/"
   xmlns:cc="http://creativecommons.org/ns#"
   xmlns:rdf="http://www.w3.org/1999/02/22-rdf-syntax-ns#"
   xmlns:svg="http://www.w3.org/2000/svg"
   xmlns="http://www.w3.org/2000/svg"
   xmlns:sodipodi="http://sodipodi.sourceforge.net/DTD/sodipodi-0.dtd"
   xmlns:inkscape="http://www.inkscape.org/namespaces/inkscape"
   enable-background="new 0 0 24 24"
   height="24px"
   id="Layer_1"
   version="1.1"
   viewBox="0 0 24 24"
   width="24px"
   xml:space="preserve"
   inkscape:version="0.48.4 r9939"
   sodipodi:docname="Edit.svg"><metadata
     id="metadata9"><rdf:RDF><cc:Work
         rdf:about=""><dc:format>image/svg+xml</dc:format><dc:type
           rdf:resource="http://purl.org/dc/dcmitype/StillImage" /></cc:Work></rdf:RDF></metadata><defs
     id="defs7" /><sodipodi:namedview
     pagecolor="#ffffff"
     bordercolor="#666666"
     borderopacity="1"
     objecttolerance="10"
     gridtolerance="10"
     guidetolerance="10"
     inkscape:pageopacity="0"
     inkscape:pageshadow="2"
     inkscape:window-width="1366"
     inkscape:window-height="705"
     id="namedview5"
     showgrid="false"
     inkscape:zoom="20.665365"
     inkscape:cx="12"
     inkscape:cy="12"
     inkscape:window-x="-8"
     inkscape:window-y="-8"
     inkscape:window-maximized="1"
     inkscape:current-layer="Layer_1" /><path
     d="M 22.510909,5.8538182 C 22.001455,5.0116364 21.373091,4.1869091 20.604,3.4221818 19.826182,2.6498182 18.987273,2.0170909 18.128727,1.5087273 L 19.636364,0 c 0,0 2.181818,0 3.272727,1.0909091 C 24,2.1818182 24,4.3636364 24,4.3636364 L 22.510909,5.8538182 z M 9.818182,18.545455 H 5.4545455 v -4.363637 l 0.5236363,-0.523636 c 0.8869091,0.42 1.7683637,1.010182 2.5614546,1.802182 0.7941816,0.795272 1.3832726,1.674545 1.8021816,2.561454 L 9.818182,18.545455 z M 21.250909,7.1127273 11.600727,16.761818 C 11.091273,15.920727 10.462909,15.093818 9.693818,14.330182 8.9170909,13.556727 8.0770909,12.925091 7.2185455,12.416727 L 16.887273,2.7490909 c 0.886909,0.4178182 1.768363,1.008 2.561454,1.8010909 0.795273,0.7941818 1.384364,1.6756364 1.802182,2.5625455 z m -17.9781817,-3.84 V 20.727273 H 20.727273 V 13.090909 L 24,9.7767273 V 21.818182 C 24,23.023636 23.022545,24 21.818182,24 H 2.1818182 C 0.9774545,24 0,23.023636 0,21.818182 V 2.1818182 C 0,0.97745455 0.9774545,0 2.1818182,0 H 14.192727 L 10.918909,3.2727273 H 3.2727273 z"
     id="path3"
     inkscape:connector-curvature="0"
     style="fill:#00112b" /></svg>