<?xml version="1.0" encoding="UTF-8" standalone="no"?>
<svg
   xmlns:dc="http://purl.org/dc/elements/1.1/"
   xmlns:cc="http://creativecommons.org/ns#"
   xmlns:rdf="http://www.w3.org/1999/02/22-rdf-syntax-ns#"
   xmlns:svg="http://www.w3.org/2000/svg"
   xmlns="http://www.w3.org/2000/svg"
   xmlns:sodipodi="http://sodipodi.sourceforge.net/DTD/sodipodi-0.dtd"
   xmlns:inkscape="http://www.inkscape.org/namespaces/inkscape"
   enable-background="new 0 0 24 24"
   height="24px"
   id="Layer_1"
   version="1.1"
   viewBox="0 0 24 24"
   width="24px"
   xml:space="preserve"
   inkscape:version="0.48.4 r9939"
   sodipodi:docname="Help.svg"><metadata
     id="metadata9"><rdf:RDF><cc:Work
         rdf:about=""><dc:format>image/svg+xml</dc:format><dc:type
           rdf:resource="http://purl.org/dc/dcmitype/StillImage" /><dc:title /></cc:Work></rdf:RDF></metadata><defs
     id="defs7" /><sodipodi:namedview
     pagecolor="#ffffff"
     bordercolor="#666666"
     borderopacity="1"
     objecttolerance="10"
     gridtolerance="10"
     guidetolerance="10"
     inkscape:pageopacity="0"
     inkscape:pageshadow="2"
     inkscape:window-width="1366"
     inkscape:window-height="705"
     id="namedview5"
     showgrid="false"
     inkscape:zoom="18.719303"
     inkscape:cx="7.1359836"
     inkscape:cy="13.087296"
     inkscape:window-x="-8"
     inkscape:window-y="-8"
     inkscape:window-maximized="1"
     inkscape:current-layer="Layer_1" /><g
     transform="matrix(1.1186808,0,0,0.74492503,2.0000001,0)"
     style="font-size:47.67520142000000000px;font-style:normal;font-variant:normal;font-weight:normal;font-stretch:normal;text-align:start;line-height:125%;letter-spacing:0px;word-spacing:0px;writing-mode:lr-tb;text-anchor:start;fill:#000000;fill-opacity:1;stroke:none;font-family:SimHei;-inkscape-font-specification:SimHei"
     id="text3011"><path
       d="m 17.8782,8.0079428 c -2e-5,1.6140277 -0.372482,3.1038762 -1.117387,4.4695502 -0.744944,1.365715 -1.738176,2.545179 -2.9797,3.538394 -1.241557,0.993249 -2.110635,1.986482 -2.607238,2.9797 -0.49663,0.993246 -0.744938,1.676094 -0.744925,2.048544 l 0,1.303618 -3.3521624,0 0,-1.862312 c -9.5e-6,-1.117374 0.2793371,-2.203722 0.8380406,-3.259047 0.5586829,-1.055294 1.5208768,-2.203718 2.8865848,-3.445278 0.993219,-0.869059 1.676066,-1.769176 2.048544,-2.700353 C 13.222403,10.149625 13.408634,9.2495084 13.40865,8.3804053 13.408634,6.7664275 13.036172,5.5559255 12.291263,4.7488958 11.546324,3.9419229 10.491014,3.5384223 9.1253314,3.5383927 7.7596253,3.5384223 6.6112004,4.066077 5.6800532,5.1213583 4.7488897,6.1766958 4.2833121,7.8838139 4.2833188,10.242718 l -4.28331891920929,0 C 0.12415151,6.7664275 1.0553069,4.190231 2.7934687,2.5141208 4.5316201,0.83807177 6.6422389,3.1957071e-5 9.1253314,-1.1920929e-6 11.856709,3.1957071e-5 13.998366,0.74495623 15.55031,2.2347739 c 1.551907,1.4898794 2.32787,3.4142672 2.32789,5.7731689 z m -7.076787,24.2100632 -4.0970879,0 0,-4.46955 4.0970879,0 z"
       id="path3016"
       style="fill:#000000"
       inkscape:connector-curvature="0" /></g></svg>