<?xml version="1.0" encoding="UTF-8" standalone="no"?>
<!-- Generator: Adobe Illustrator 15.0.0, SVG Export Plug-In . SVG Version: 6.00 Build 0)  -->

<svg
   xmlns:dc="http://purl.org/dc/elements/1.1/"
   xmlns:cc="http://creativecommons.org/ns#"
   xmlns:rdf="http://www.w3.org/1999/02/22-rdf-syntax-ns#"
   xmlns:svg="http://www.w3.org/2000/svg"
   xmlns="http://www.w3.org/2000/svg"
   xmlns:sodipodi="http://sodipodi.sourceforge.net/DTD/sodipodi-0.dtd"
   xmlns:inkscape="http://www.inkscape.org/namespaces/inkscape"
   version="1.1"
   id="Layer_1"
   x="0px"
   y="0px"
   width="64"
   height="64"
   viewBox="0 0 64 64"
   enable-background="new 0 0 26 26"
   xml:space="preserve"
   inkscape:version="0.48.4 r9939"
   sodipodi:docname="Ping.svg"><metadata
   id="metadata17"><rdf:RDF><cc:Work
       rdf:about=""><dc:format>image/svg+xml</dc:format><dc:type
         rdf:resource="http://purl.org/dc/dcmitype/StillImage" /></cc:Work></rdf:RDF></metadata><defs
   id="defs15" /><sodipodi:namedview
   pagecolor="#ffffff"
   bordercolor="#666666"
   borderopacity="1"
   objecttolerance="10"
   gridtolerance="10"
   guidetolerance="10"
   inkscape:pageopacity="0"
   inkscape:pageshadow="2"
   inkscape:window-width="1366"
   inkscape:window-height="705"
   id="namedview13"
   showgrid="false"
   inkscape:zoom="4"
   inkscape:cx="29.138348"
   inkscape:cy="24.271338"
   inkscape:window-x="-8"
   inkscape:window-y="-8"
   inkscape:window-maximized="1"
   inkscape:current-layer="Layer_1" />
<g
   id="g3"
   transform="matrix(2.5831083,0,0,2.4877313,-0.32177944,-0.465205)">
	<circle
   cx="3"
   cy="3"
   r="2.813"
   id="circle5"
   sodipodi:cx="3"
   sodipodi:cy="3"
   sodipodi:rx="2.813"
   sodipodi:ry="2.813"
   style="fill:#000000"
   d="M 5.813,3 C 5.813,4.553577 4.553577,5.813 3,5.813 1.446423,5.813 0.18700004,4.553577 0.18700004,3 0.18700004,1.446423 1.446423,0.18700004 3,0.18700004 4.553577,0.18700004 5.813,1.446423 5.813,3 z" />
</g>
<rect
   width="26"
   height="26"
   id="rect7"
   x="0"
   y="38"
   style="fill:none" />
<g
   id="g9"
   transform="matrix(2.5831083,0,0,2.4877313,-0.32177944,-0.465205)">
	<path
   d="m 4.668,11.8 9.561,9.56 C 13.052,21.341 11.877,21.135 10.768,20.693 10.323,20.609 8.533,20.319 7.85,21.002 6.287,22.565 4.859,24.699 4.077,25.481 3.296,26.262 2.187,25.937 1.139,24.889 0.09,23.84 -0.211,22.709 0.547,21.951 1.305,21.193 3.463,19.742 5.027,18.178 5.743,17.461 5.371,15.479 5.314,15.199 4.887,14.108 4.688,12.955 4.668,11.8 z M 22.058,3.969 C 17.409,-0.681 11.299,0.946 7.495,4.751 6.086,6.158 5.201,7.889 4.836,9.703 l 11.485,11.486 c 1.814,-0.365 3.546,-1.248 4.953,-2.656 C 25.08,14.727 26.71,8.62 22.058,3.969 z"
   id="path11"
   inkscape:connector-curvature="0"
   style="fill:#000000" />
</g>
</svg>