<?xml version="1.0" encoding="UTF-8" standalone="no"?>
<svg
   xmlns:dc="http://purl.org/dc/elements/1.1/"
   xmlns:cc="http://creativecommons.org/ns#"
   xmlns:rdf="http://www.w3.org/1999/02/22-rdf-syntax-ns#"
   xmlns:svg="http://www.w3.org/2000/svg"
   xmlns="http://www.w3.org/2000/svg"
   xmlns:sodipodi="http://sodipodi.sourceforge.net/DTD/sodipodi-0.dtd"
   xmlns:inkscape="http://www.inkscape.org/namespaces/inkscape"
   enable-background="new 0 0 24 24"
   height="24px"
   id="Layer_1"
   version="1.1"
   viewBox="0 0 24 24"
   width="24px"
   xml:space="preserve"
   inkscape:version="0.48.4 r9939"
   sodipodi:docname="Remove.svg"><metadata
     id="metadata9"><rdf:RDF><cc:Work
         rdf:about=""><dc:format>image/svg+xml</dc:format><dc:type
           rdf:resource="http://purl.org/dc/dcmitype/StillImage" /></cc:Work></rdf:RDF></metadata><defs
     id="defs7" /><sodipodi:namedview
     pagecolor="#ffffff"
     bordercolor="#666666"
     borderopacity="1"
     objecttolerance="10"
     gridtolerance="10"
     guidetolerance="10"
     inkscape:pageopacity="0"
     inkscape:pageshadow="2"
     inkscape:window-width="970"
     inkscape:window-height="643"
     id="namedview5"
     showgrid="false"
     inkscape:zoom="14.751252"
     inkscape:cx="12"
     inkscape:cy="12"
     inkscape:window-x="202"
     inkscape:window-y="25"
     inkscape:window-maximized="0"
     inkscape:current-layer="Layer_1" /><path
     d="m 23.731848,2.880972 c 0.357536,0.3578527 0.357536,0.9443653 0,1.3022181 l -7.168987,7.1684879 c -0.357535,0.356709 -0.357535,0.944365 0,1.303361 l 7.165561,7.170775 c 0.357535,0.357852 0.357535,0.944365 0,1.303361 l -2.610124,2.603293 c -0.358678,0.356709 -0.945813,0.356709 -1.304491,0 l -7.163275,-7.169631 c -0.357536,-0.357853 -0.945813,-0.357853 -1.303348,0 l -7.1689874,7.165058 c -0.3575355,0.357852 -0.9458128,0.357852 -1.3033483,0 L 0.26815164,21.121172 c -0.35753552,-0.357853 -0.35753552,-0.944365 0,-1.303362 L 7.4394231,12.650466 c 0.3575356,-0.356709 0.3575356,-0.944365 0,-1.303361 L 0.27386307,4.175187 c -0.35867781,-0.3578528 -0.35867781,-0.9455087 0,-1.3033614 L 2.8828443,0.26738934 C 3.2426644,-0.0893201 3.8286571,-0.0893201 4.1873349,0.26853264 L 11.349468,7.4370204 c 0.358678,0.358996 0.945813,0.358996 1.303348,0.00114 l 7.168987,-7.16505786 c 0.356394,-0.35670944 0.943529,-0.35670944 1.303349,0 L 23.731848,2.880972 z"
     id="path3"
     style="fill:#d40000"
     inkscape:connector-curvature="0" /></svg>