<?xml version="1.0" encoding="UTF-8" standalone="no"?>
<!-- Generator: Adobe Illustrator 15.0.0, SVG Export Plug-In . SVG Version: 6.00 Build 0)  -->

<svg
   xmlns:dc="http://purl.org/dc/elements/1.1/"
   xmlns:cc="http://creativecommons.org/ns#"
   xmlns:rdf="http://www.w3.org/1999/02/22-rdf-syntax-ns#"
   xmlns:svg="http://www.w3.org/2000/svg"
   xmlns="http://www.w3.org/2000/svg"
   xmlns:sodipodi="http://sodipodi.sourceforge.net/DTD/sodipodi-0.dtd"
   xmlns:inkscape="http://www.inkscape.org/namespaces/inkscape"
   version="1.1"
   id="Layer_1"
   x="0px"
   y="0px"
   width="64"
   height="64"
   viewBox="0 0 64 64"
   enable-background="new 0 0 26 26"
   xml:space="preserve"
   inkscape:version="0.48.4 r9939"
   sodipodi:docname="SNMPGraph.svg"><metadata
   id="metadata17"><rdf:RDF><cc:Work
       rdf:about=""><dc:format>image/svg+xml</dc:format><dc:type
         rdf:resource="http://purl.org/dc/dcmitype/StillImage" /></cc:Work></rdf:RDF></metadata><defs
   id="defs15" /><sodipodi:namedview
   pagecolor="#ffffff"
   bordercolor="#666666"
   borderopacity="1"
   objecttolerance="10"
   gridtolerance="10"
   guidetolerance="10"
   inkscape:pageopacity="0"
   inkscape:pageshadow="2"
   inkscape:window-width="1366"
   inkscape:window-height="705"
   id="namedview13"
   showgrid="false"
   inkscape:zoom="4.203125"
   inkscape:cx="-31.048328"
   inkscape:cy="43.158651"
   inkscape:window-x="-8"
   inkscape:window-y="-8"
   inkscape:window-maximized="1"
   inkscape:current-layer="Layer_1" />



<g
   id="g2989"><rect
     y="48.695168"
     x="0"
     height="13.304832"
     width="18"
     id="rect2986-1-83"
     style="fill:#808080;fill-opacity:1;stroke:none" /><rect
     y="39.825279"
     x="23"
     height="22.174721"
     width="18"
     id="rect2986-1-1-86"
     style="fill:#808080;fill-opacity:1;stroke:none" /><rect
     y="26.520447"
     x="46"
     height="35.479553"
     width="18"
     id="rect2986-1-6-98"
     style="fill:#808080;fill-opacity:1;stroke:none" /><path
     sodipodi:nodetypes="sscccccsscccsscccccsss"
     inkscape:connector-curvature="0"
     id="rect3018-1"
     d="m 54,2 c -2.928932,0 -5.28125,2.3835678 -5.28125,5.3125 0,0.5744242 0.08107,1.1382141 0.25,1.65625 l -13.71875,14.5 c -1.171113,-3.102353 -2.544233,-6.226586 -3.625,-9.3125 l -3.21875,-3.5 L 11.9375,28.0625 C 11.334801,27.824538 10.687283,27.6875 10,27.6875 c -2.9289322,0 -5.3125,2.383568 -5.3125,5.3125 0,2.517051 1.7416631,4.613294 4.09375,5.15625 l 0.0625,0.0625 L 8.875,38.1875 c 0.3546429,0.07475 0.7481153,0.09375 1.125,0.09375 2.928932,0 5.28125,-2.352318 5.28125,-5.28125 0,-0.485555 -0.06528,-0.959468 -0.1875,-1.40625 L 27.75,18.25 c 1.263456,3.240641 2.614238,6.578629 3.625,9.3125 l 3.21875,3.5 17.71875,-18.75 c 0.535371,0.181776 1.09068,0.3125 1.6875,0.3125 2.928932,0 5.3125,-2.383568 5.3125,-5.3125 C 59.3125,4.3835678 56.928932,2 54,2 z"
     style="fill:#000000;fill-opacity:1;stroke:none" /></g></svg>